<svg width="11" height="21" viewBox="0 0 11 21" xmlns="http://www.w3.org/2000/svg"><title>Untitled</title><path d="M10.2 7.553v.09c0 .016-.004.032-.005.048l-.01.254c-.025.5-.05 1-.073 1.5l-.07 1.487c-.002.067-.006.133-.01.203h-3.66V20.865c0 .02-.003.04-.004.06H2.59l.002-.015V11.132H0v-3.58l.016.002h2.542l.034-.003v-.055-2.942c0-.42.047-.835.153-1.24C3.07 2.064 3.8 1.142 4.955.566c.7-.35 1.45-.503 2.223-.55.09-.007.18-.012.27-.017h.587l.057.005c.28.01.56.015.84.03.315.02.628.046.942.07.102.01.204.023.31.035-.03 1.116-.057 2.228-.085 3.34h-.056c-.74-.002-1.482-.006-2.223-.01-.215 0-.43.016-.64.07-.392.098-.643.34-.74.737-.056.232-.068.468-.068.705-.002.842 0 1.684 0 2.526v.046H10.2" fill="#333" fill-rule="evenodd"/></svg>