<svg width="21" height="21" viewBox="0 0 21 21" xmlns="http://www.w3.org/2000/svg" xmlns:xlink="http://www.w3.org/1999/xlink"><title>Untitled</title><defs><path id="a" d="M20.403 20.403V0H0v20.403h20.403z"/></defs><g fill="none" fill-rule="evenodd"><mask id="b" fill="#fff"><use xlink:href="#a"/></mask><path d="M10.142 18.474v-.004c1.512 0 3.025.034 4.536-.01 1.12-.035 2.136-.39 2.893-1.286.624-.736.884-1.616.893-2.547.027-2.922.056-5.846 0-8.768-.048-2.45-1.454-3.85-3.9-3.924-2.497-.075-4.997-.08-7.495-.075-.76.002-1.536.06-2.28.214-1.72.358-2.805 1.697-2.84 3.62-.058 2.973-.067 5.948-.005 8.92.05 2.378 1.486 3.77 3.866 3.85 1.442.05 2.887.01 4.332.01M0 14.282v-8.16c.032-.234.08-.466.095-.7C.25 2.79 1.922.798 4.473.246 5.015.128 5.57.08 6.12 0h8.162c.232.033.463.08.696.095 2.6.153 4.535 1.75 5.142 4.287.144.602.19 1.227.283 1.84v7.856c-.035.3-.084.6-.102.9-.148 2.59-1.75 4.538-4.273 5.138-.636.15-1.298.194-1.95.287H6.224c-.266-.035-.532-.086-.8-.1C2.78 20.15.766 18.444.236 15.882c-.11-.528-.158-1.067-.235-1.6" fill="#333" mask="url(#b)"/><path d="M10.182 13.58c1.9.007 3.398-1.483 3.4-3.376 0-1.877-1.477-3.374-3.34-3.386-1.907-.012-3.414 1.462-3.424 3.35-.01 1.903 1.473 3.407 3.364 3.413m-5.215-3.405c.017-2.925 2.35-5.23 5.27-5.208 2.92.022 5.223 2.363 5.193 5.28-.03 2.905-2.344 5.192-5.243 5.183-2.923-.01-5.237-2.34-5.22-5.255M16.86 4.737c.008.683-.527 1.24-1.2 1.253-.66.01-1.24-.55-1.255-1.214-.015-.666.536-1.225 1.217-1.234.703-.01 1.23.498 1.237 1.195" fill="#333"/></g></svg>